{"title":"The Big Bang 2011 XViD AC3 BRRip - DTRG - SAFCuk009","uid":6381330,"size":1147202682,"categoryP":"video","categoryS":"movies","magnet":"?xt=urn:btih:d0e2f3a051f95154a7c556ea7e3eb6161418e701&amp;dn=The+Big+Bang+2011+XViD+AC3+BRRip+-+DTRG+-+SAFCuk009&amp;tr=udp%3A%2F%2Ftracker.openbittorrent.com%3A80&amp;tr=udp%3A%2F%2Fopen.demonii.com%3A1337&amp;tr=udp%3A%2F%2Ftracker.coppersurfer.tk%3A6969&amp;tr=udp%3A%2F%2Fexodus.desync.com%3A6969","seeders":0,"leechers":1,"uploader":"SAFCukO09","files":3,"time":1305036452,"description":"Format/Info : Audio Video Interleave\nFile size : 1.07 GiB\nDuration : 1h 41mn\nOverall bit rate : 1 510 Kbps\nWriting application : VirtualDubMod 1.5.10.3 | www.virtualdub-fr.org || (build 2550/release)\nWriting library : VirtualDubMod build 2550/release\n\nVideo\nID : 0\nFormat : MPEG-4 Visual\nFormat profile : Advanced Simple@L5\nFormat settings, BVOP : Yes\nFormat settings, QPel : No\nFormat settings, GMC : No warppoints\nFormat settings, Matrix : Custom\nCodec ID : XVID\nCodec ID/Hint : XviD\nDuration : 1h 41mn\nBit rate : 1 053 Kbps\nWidth : 720 pixels\nHeight : 304 pixels\nDisplay aspect ratio : 2.35:1\nFrame rate : 23.976 fps\nColor space : YUV\nChroma subsampling : 4:2:0\nBit depth : 8 bits\nScan type : Progressive\nBits/(Pixel*Frame) : 0.201\nStream size : 763 MiB (70%)\nWriting library : XviD 1.2.1 (UTC 2008-12-04)\n\nAudio\nID : 1\nFormat : AC-3\nFormat/Info : Audio Coding 3\nMode extension : CM (complete main)\nCodec ID : 2000\nDuration : 1h 41mn\nBit rate mode : Constant\nBit rate : 448 Kbps\nChannel(s) : 6 channels\nChannel positions : Front: L C R, Side: L R, LFE\nSampling rate : 48.0 KHz\nBit depth : 16 bits\nStream size : 325 MiB (30%)\nAlignment : Split accross interleaves\nInterleave, duration : 42 ms (1.00 video frame)\nInterleave, preload duration : 500 ms\n\n\n\n &lt;a href=&quot;\nhttp://www.imdb.com/title/tt1307873/&quot; rel=&quot;nofollow&quot; target=&quot;_NEW&quot;&gt;\nhttp://www.imdb.com/title/tt1307873/&lt;/a&gt;\n\n\n\n\n\n\n\n\nUsers: 5.5/10 (1,607 votes) 14 reviews | Critics: 4 reviews\n\nA private detective is hired to find a missing stripper. A simple job turns complicated when everyone he questions ends up dead.\nDirector:\nTony Krantz\nWriter:\nErik Jendresen\nStars:\nAntonio Banderas, Thomas Kretschmann and William Fichtner\n\n\n\n\n\n\n\n\n\n\n\n\n\n\nThe Big Bang 720p BluRay x264-DEVERSiFY ............... Thanks\n\n\n\n\nGreetz to Imagine ,Flawl3ss,DiLLoN,BDK,NOiR,TOXiCiNK,THC,Ez,Rx,Boobyblue,TaRiQ786,LKRG","torrent":{"xt":"urn:btih:d0e2f3a051f95154a7c556ea7e3eb6161418e701","amp;dn":"The+Big+Bang+2011+XViD+AC3+BRRip+-+DTRG+-+SAFCuk009","amp;tr":["udp%3A%2F%2Ftracker.openbittorrent.com%3A80","udp%3A%2F%2Fopen.demonii.com%3A1337","udp%3A%2F%2Ftracker.coppersurfer.tk%3A6969","udp%3A%2F%2Fexodus.desync.com%3A6969"],"infoHash":"d0e2f3a051f95154a7c556ea7e3eb6161418e701","infoHashBuffer":{"type":"Buffer","data":[208,226,243,160,81,249,81,84,167,197,86,234,126,62,182,22,20,24,231,1]},"announce":[],"urlList":[]}}